<?xml version="1.0" encoding="UTF-8"?><svg id="Layer_1" data-name="Layer 1" xmlns="http://www.w3.org/2000/svg" viewBox="0 0 234.47 234.47"><defs><style>.cls-1{fill:#232121;}.cls-2{fill:#f0dc4d;}</style></defs><g id="Main"><path id="W" class="cls-1" d="m52.54,142.99l-1.3-1.49-2.78-3.2,1.98,5.09h0s1.04,2.66,1.04,2.66c.51-.84,1.01-1.7,1.52-2.54-.16-.17-.3-.35-.45-.52Zm-3.97-8.76l5.59,6.48,13.5-32.23,16.02,38.11,22.69-58h-9.22l-13.63,36.09-15.67-36.98-.12-.27"/><path id="D" class="cls-1" d="m149.54,96.72c-4.56-5.43-12.58-8.13-24.04-8.13h-13.7v56.92h14.17c7.33,0,13.25-1.4,17.77-4.18,4.52-2.78,7.76-6.39,9.71-10.8,1.97-4.42,2.94-9.22,2.94-14.44,0-7.49-2.28-13.94-6.85-19.35Zm-7.12,35.04c-3.23,4.05-8.39,6.07-15.52,6.07h-6.42v-41.66h6.42c7.07,0,12.23,1.89,15.48,5.65,3.25,3.77,4.88,8.65,4.88,14.64s-1.62,11.24-4.84,15.3Z"/><path id="H" class="cls-1" d="m173.65,111.82v-23.24h-8.67v56.92h8.67v-26.41h19.78v-7.27h-19.78Z"/></g><g id="Angel"><polygon class="cls-2" points="184.41 89.83 191.47 83.96 215.8 115.86 208.74 121.73 184.41 89.83"/><polygon class="cls-2" points="43.9 86.23 29.01 116.42 26.36 121.76 18.94 118.05 18.67 117.73 21.97 111.05 36.14 82.34 43.9 86.23"/><path class="cls-2" d="m53,143.5c-.51.84-1.01,1.7-1.52,2.54-.31.52-.61,1.04-.92,1.55-.89,1.5-1.79,3.02-2.67,4.53-9.65-11.33-19.29-22.68-28.94-34.02l-.28-.32,3.45-6.89.63-.56.79-.69,5.91,6.77,16.48,18.95,2.54,2.91,2.78,3.2,1.3,1.49c.16.17.3.35.45.52Z"/><polygon class="cls-2" points="215.61 116.03 208.04 110.9 186.48 145.52 194.05 150.65 215.61 116.03"/></g></svg>